<?xml version="1.0" encoding="utf-8"?>
<!-- Generator: Adobe Illustrator 24.1.2, SVG Export Plug-In . SVG Version: 6.00 Build 0)  -->
<svg version="1.1" id="Layer_1" xmlns="http://www.w3.org/2000/svg" xmlns:xlink="http://www.w3.org/1999/xlink" x="0px" y="0px"
	 viewBox="0 0 20 20" style="enable-background:new 0 0 20 20;" xml:space="preserve">
<g>
	<path d="M10.11,0.03c4.5-0.01,8.31,3.67,8.23,8.37c-0.04,2.21-0.85,4.12-2.41,5.68c-1.6,1.6-3.56,2.41-5.83,2.41
		c-2.28,0-4.24-0.83-5.84-2.45c-1.61-1.64-2.41-3.63-2.37-5.93C1.95,3.63,5.61,0.03,10.11,0.03z M9.78,3.51
		c0,0.01,0.01,0.02,0.01,0.03C9.78,3.56,9.76,3.58,9.75,3.6C9.44,4.07,9.17,4.55,9.01,5.08C8.59,6.49,8.16,7.9,7.75,9.32
		c-0.31,1.08-0.59,2.17-0.88,3.25c-0.05,0.2-0.08,0.4-0.06,0.6c0.01,0.11,0.06,0.18,0.15,0.18c0.42,0,0.83,0.01,1.25,0
		c0.14,0,0.28-0.05,0.42-0.09c0.07-0.02,0.11-0.07,0.12-0.15c0.06-0.43,0.09-0.86,0.18-1.29c0.23-1.03,0.49-2.05,0.75-3.08
		c0.05-0.19,0.22-0.28,0.41-0.23c0.15,0.04,0.26,0.13,0.36,0.25c0.27,0.36,0.4,0.78,0.42,1.23c0.01,0.22-0.02,0.44-0.01,0.65
		c0.01,0.27,0.02,0.54,0.05,0.81c0.04,0.35,0.13,0.69,0.3,1.01c0.27,0.51,0.7,0.77,1.26,0.81c0.37,0.03,0.74-0.04,1.09-0.15
		c0.56-0.18,1.06-0.47,1.55-0.8c0.07-0.05,0.14-0.12,0.19-0.19c0.03-0.03,0.04-0.08,0.05-0.13c0.02-0.09-0.04-0.15-0.13-0.15
		c-0.07,0-0.15,0.01-0.21,0.04c-0.31,0.17-0.64,0.22-0.99,0.22c-0.19,0-0.36-0.05-0.52-0.15c-0.2-0.13-0.35-0.3-0.49-0.5
		c-0.31-0.46-0.5-0.97-0.65-1.49c-0.12-0.44-0.31-0.85-0.64-1.17c-0.07-0.07-0.14-0.14-0.2-0.21c-0.07-0.09-0.05-0.16,0.05-0.21
		c0.05-0.02,0.1-0.05,0.15-0.07c0.55-0.22,1.1-0.46,1.59-0.81c0.4-0.28,0.75-0.61,1-1.04c0.27-0.47,0.39-0.97,0.34-1.51
		c-0.03-0.35-0.12-0.67-0.33-0.95c-0.23-0.31-0.54-0.51-0.9-0.66c-0.59-0.24-1.22-0.31-1.85-0.33c-0.29-0.01-0.58,0-0.87,0.01
		c-0.3,0.01-0.61,0.02-0.91,0.06c-0.47,0.06-0.93,0.12-1.4,0.21C7.6,3.47,6.8,3.71,6.06,4.1C5.51,4.38,5.02,4.73,4.64,5.21
		C4.1,5.9,3.85,6.67,3.96,7.54c0.05,0.42,0.28,0.74,0.66,0.92c0.55,0.25,1.1,0.22,1.64-0.02c0.42-0.19,0.75-0.47,0.94-0.9
		c0.03-0.07,0.05-0.15,0.07-0.24C7.15,7.34,7.05,7.36,6.95,7.37c-0.4,0.06-0.72-0.12-0.85-0.5c-0.11-0.33-0.1-0.67,0-1
		c0.16-0.5,0.47-0.89,0.86-1.23C7.63,4.06,8.39,3.7,9.25,3.56C9.42,3.53,9.6,3.52,9.78,3.51z"/>
	<path d="M12.89,4.85c-0.07,0.86-0.25,1.64-0.76,2.3c-0.39,0.5-0.9,0.8-1.52,0.89c-0.17,0.03-0.34,0.03-0.5,0.03
		c-0.18,0-0.29-0.13-0.24-0.3c0.11-0.38,0.22-0.76,0.34-1.14c0.28-0.88,0.58-1.75,0.94-2.6c0.04-0.1,0.09-0.19,0.13-0.29
		c0.07-0.16,0.19-0.26,0.34-0.33c0.06-0.03,0.15-0.02,0.21,0c0.49,0.16,0.83,0.48,0.99,0.97C12.86,4.56,12.87,4.73,12.89,4.85z"/>
</g>
</svg>
